STARTFONT 2.1
FONT -gnu-unifont-medium-r-normal--16-160-75-75-c-80-iso10646-1
SIZE 16 75 75
FONTBOUNDINGBOX 16 16 0 -2
STARTPROPERTIES 2
FONT_ASCENT 14
FONT_DESCENT 2
ENDPROPERTIES
CHARS 7
STARTCHAR 0
ENCODING 48
SWIDTH 1000 0
DWIDTH 16 0
BBX 16 16 0 -2
BITMAP
1ff8
2004
4002
4002
4002
4002
4002
4002
4002
4002
4002
4002
4002
4002
2004
1ff8
ENDCHAR
STARTCHAR 1
ENCODING 49
SWIDTH 1000 0
DWIDTH 16 0
BBX 16 16 0 -2
BITMAP
0080
0180
0280
0480
0080
0080
0080
0080
0080
0080
0080
0080
0080
0080
0080
0ff8
ENDCHAR
STARTCHAR 2
ENCODING 50
SWIDTH 1000 0
DWIDTH 16 0
BBX 16 16 0 -2
BITMAP
1f80
0070
0018
0008
0008
0010
0010
0020
0060
00c0
0100
0300
0400
0800
3800
0ff0
ENDCHAR
STARTCHAR 3
ENCODING 51
SWIDTH 1000 0
DWIDTH 16 0
BBX 16 16 0 -2
BITMAP
3f80
0070
0008
0008
0004
0004
0004
0004
0008
0ff0
0010
0010
0010
0030
0060
0f80
ENDCHAR
STARTCHAR 4
ENCODING 52
SWIDTH 1000 0
DWIDTH 16 0
BBX 16 16 0 -2
BITMAP
00c0
01c0
0140
0340
0240
0440
0440
0840
1840
1040
2040
3ff0
0040
0040
0040
0040
ENDCHAR
STARTCHAR 5
ENCODING 53
SWIDTH 1000 0
DWIDTH 16 0
BBX 16 16 0 -2
BITMAP
1ff0
1000
1000
1000
1000
1000
1000
1000
1ff0
0008
0008
0008
0018
0010
01f0
1f00
ENDCHAR
STARTCHAR 6
ENCODING 54
SWIDTH 1000 0
DWIDTH 16 0
BBX 16 16 0 -2
BITMAP
00e0
0080
0100
0300
0200
0400
0400
0800
0f00
11e0
1030
1010
1018
1008
1830
0fe0
ENDCHAR
ENDFONT
